<svg xmlns="http://www.w3.org/2000/svg" viewBox="0 0 32 32" width="32" height="32">
  <defs>
    <linearGradient id="g" x1="0" y1="0" x2="32" y2="32" gradientUnits="userSpaceOnUse">
      <stop stop-color="#3f3f46" />
      <stop offset="1" stop-color="#a1a1aa" />
    </linearGradient>
  </defs>
  <rect width="32" height="32" rx="9" fill="url(#g)" />
  <path d="M8.5 9.5h15a2 2 0 0 1 2 2v7a2 2 0 0 1-2 2h-7.4l-4.1 3.2a.6.6 0 0 1-1-.48V20.5H8.5a2 2 0 0 1-2-2v-7a2 2 0 0 1 2-2Z" fill="#fff" />
  <path d="M16 11.4c.35 2.6 1 3.25 3.6 3.6-2.6.35-3.25 1-3.6 3.6-.35-2.6-1-3.25-3.6-3.6 2.6-.35 3.25-1 3.6-3.6Z" fill="#52525b" />
</svg>
